<svg width="40" height="40" viewBox="0 0 40 40" fill="none" xmlns="http://www.w3.org/2000/svg">
<rect width="40" height="40" rx="15" fill="#2955F4"/>
<g clip-path="url(#clip0_258_350)">
<path d="M30.9752 16.7876C29.2433 10.986 23.0087 7.70942 17.0757 9.48037L17.0255 9.49713C14.1372 10.3575 11.7657 12.2765 10.3383 14.9022C8.93887 17.4804 8.62602 20.4301 9.45563 23.2122C11.1875 29.0111 17.4221 32.2904 23.3551 30.5195C23.95 30.3407 24.5255 30.1228 25.0702 29.8658C26.1986 30.2904 27.8048 30.6284 28.6931 30.8156C28.9081 30.8603 29.1288 30.9077 29.1568 30.9133C29.3746 30.9943 29.5925 31.0027 29.7797 30.9468C29.9165 30.905 30.0394 30.8295 30.1344 30.7234C30.3132 30.5195 30.4584 30.1396 30.1093 29.4748C29.9696 29.2318 29.7238 28.7513 29.4668 28.2429C29.2545 27.8267 29.0199 27.3658 28.8048 26.958C31.2266 24.1284 32.0394 20.3547 30.9752 16.7876Z" fill="white"/>
<path d="M20.2626 26.1425C18.5 26.1425 17.4441 24.1341 17.3268 23.8995C17.1452 23.5391 17.2933 23.0978 17.6536 22.919C18.014 22.7374 18.4525 22.8855 18.6341 23.2458C18.8268 23.6257 19.5307 24.6816 20.2709 24.6816C20.2877 24.6816 20.3073 24.6816 20.3268 24.6816C20.3575 24.6816 20.3464 24.6788 20.3631 24.6788C20.4944 24.6564 21.4302 24.4302 22.5 22.595C22.7039 22.2458 23.1508 22.1285 23.5 22.3324C23.8492 22.5363 23.9665 22.9833 23.7626 23.3324C22.2542 25.919 20.729 26.1257 20.419 26.1425C20.3659 26.1453 20.3156 26.1481 20.2626 26.1481V26.1425Z" fill="#2955F4"/>
</g>
<defs>
<clipPath id="clip0_258_350">
<rect width="22.433" height="22" fill="white" transform="translate(9 9)"/>
</clipPath>
</defs>
</svg>
