<svg width="129" height="30" viewBox="0 0 129 30" fill="none" xmlns="http://www.w3.org/2000/svg">
<g clip-path="url(#clip0_536_1430)">
<path d="M113.64 11.3579C109.841 11.3579 106.753 14.4465 106.753 18.2411C106.753 18.3349 106.756 18.4264 106.761 18.5178C106.749 18.5905 106.742 18.6656 106.742 18.743C106.742 20.727 105.127 22.3429 103.14 22.3429C101.153 22.3429 99.5382 20.7294 99.5382 18.743V15.1008H101.899C102.668 15.1008 103.29 14.477 103.29 13.7101C103.29 12.9432 102.666 12.3194 101.899 12.3194H99.5382V7.7697C99.5382 7.00047 98.914 6.37899 98.1467 6.37899C97.3795 6.37899 96.7553 7.00282 96.7553 7.7697V12.3194H94.3573C93.5876 12.3194 92.9658 12.9432 92.9658 13.7101C92.9658 14.477 93.59 15.1008 94.3573 15.1008H96.7553V18.743C96.7553 22.2608 99.6203 25.1243 103.14 25.1243C105.238 25.1243 107.103 24.1065 108.267 22.5399C109.529 24.1135 111.47 25.1243 113.64 25.1243C117.439 25.1243 120.527 22.0357 120.527 18.2411C120.527 14.4465 117.437 11.3579 113.64 11.3579ZM113.64 22.3429C111.376 22.3429 109.536 20.5019 109.536 18.2411C109.536 15.9803 111.378 14.1393 113.64 14.1393C115.902 14.1393 117.744 15.9803 117.744 18.2411C117.744 20.5019 115.902 22.3429 113.64 22.3429Z" fill="#0A3FFF"/>
<path d="M53.2219 21.0788C54.4796 19.4067 55.2281 17.3311 55.2281 15.0844C55.2281 9.57552 50.744 5.09381 45.2323 5.09381C39.7205 5.09381 35.2365 9.57552 35.2365 15.0844C35.2365 20.5933 39.7205 25.075 45.2323 25.075C47.4942 25.075 49.5802 24.3199 51.2556 23.0511L53.0224 24.8171C53.2946 25.0891 53.6513 25.2251 54.0056 25.2251C54.3599 25.2251 54.7189 25.0891 54.9888 24.8171C55.5331 24.273 55.5331 23.3935 54.9888 22.8494L53.2195 21.0811L53.2219 21.0788ZM45.2323 22.2913C41.2551 22.2913 38.0193 19.0572 38.0193 15.0821C38.0193 11.1069 41.2551 7.87289 45.2323 7.87289C49.2095 7.87289 52.4452 11.1069 52.4452 15.0821C52.4452 16.5619 51.997 17.9386 51.2274 19.083L49.9463 17.8025C49.4019 17.2584 48.522 17.2584 47.9776 17.8025C47.4332 18.3466 47.4332 19.2261 47.9776 19.7702L49.2634 21.0553C48.1113 21.834 46.7246 22.2889 45.2323 22.2889V22.2913Z" fill="#0A3FFF"/>
<path d="M68.3447 11.3321C67.575 11.3321 66.9532 11.9559 66.9532 12.7228V18.6867C66.9532 20.6707 65.3389 22.2866 63.3514 22.2866C61.364 22.2866 59.7497 20.6731 59.7497 18.6867V12.7228C59.7497 11.9536 59.1255 11.3321 58.3582 11.3321C57.591 11.3321 56.9668 11.9559 56.9668 12.7228V18.6867C56.9668 22.2045 59.8318 25.068 63.3514 25.068C66.8711 25.068 69.7361 22.2045 69.7361 18.6867V12.7228C69.7361 11.9536 69.1119 11.3321 68.3447 11.3321Z" fill="#0A3FFF"/>
<path d="M76.9772 11.3673C74.8912 11.3673 73.6617 12.2514 73 12.9948C71.3739 14.8147 71.5123 17.4414 71.564 18.0253V23.7383C71.564 24.5075 72.1881 25.129 72.9554 25.129C73.7227 25.129 74.3468 24.5052 74.3468 23.7383V17.9573C74.3468 17.9081 74.3445 17.8541 74.3374 17.8049C74.2811 17.2725 74.3069 15.7012 75.0813 14.8429C75.4989 14.3785 76.1207 14.1534 76.9772 14.1534C77.7468 14.1534 78.3686 13.5296 78.3686 12.7627C78.3686 11.9958 77.7445 11.372 76.9772 11.372V11.3673Z" fill="#0A3FFF"/>
<path d="M94.3174 22.3007C92.6115 21.5009 92.6491 18.743 92.6491 18.6867C92.6491 18.6257 92.6491 18.5671 92.642 18.5084C92.6467 18.4029 92.6491 18.295 92.6491 18.1895C92.6491 14.3926 89.5588 11.3063 85.7623 11.3063C81.9657 11.3063 78.8755 14.3949 78.8755 18.1895C78.8755 21.9841 81.9657 25.0727 85.7623 25.0727C87.806 25.0727 89.6456 24.1768 90.908 22.758C91.3914 23.5765 92.1 24.3316 93.1371 24.8171C93.3272 24.9062 93.529 24.9484 93.7261 24.9484C94.2493 24.9484 94.7515 24.6529 94.9861 24.1463C95.3123 23.4498 95.0119 22.622 94.3174 22.296V22.3007ZM85.7623 22.2936C83.498 22.2936 81.6584 20.4526 81.6584 18.1918C81.6584 15.9311 83.5003 14.0901 85.7623 14.0901C88.0242 14.0901 89.8662 15.9311 89.8662 18.1918C89.8662 20.4526 88.0242 22.2936 85.7623 22.2936Z" fill="#0A3FFF"/>
<path d="M127.609 11.3673C125.523 11.3673 124.293 12.2514 123.631 12.9948C122.005 14.8147 122.144 17.4414 122.195 18.0253V23.7383C122.195 24.5075 122.819 25.129 123.587 25.129C124.354 25.129 124.978 24.5052 124.978 23.7383V17.9573C124.978 17.9081 124.976 17.8541 124.969 17.8049C124.912 17.2725 124.938 15.7012 125.713 14.8429C126.13 14.3785 126.752 14.1534 127.609 14.1534C128.378 14.1534 129 13.5296 129 12.7627C129 11.9958 128.376 11.372 127.609 11.372V11.3673Z" fill="#0A3FFF"/>
<path d="M16.8029 13.1801C16.2796 13.1801 15.869 12.758 15.869 12.2467C15.869 11.7355 16.2913 11.3133 16.8029 11.3133C16.8686 11.3133 16.9366 11.325 17.0023 11.3344C16.6011 10.978 16.0684 10.7669 15.4889 10.7669C14.2312 10.7669 13.2081 11.7894 13.2081 13.0464C13.2081 14.3035 14.2312 15.326 15.4889 15.326C16.7466 15.326 17.7696 14.3035 17.7696 13.0464C17.7696 12.8354 17.7485 12.6571 17.7039 12.4789C17.5936 12.8799 17.237 13.1801 16.8029 13.1801Z" fill="#0A3FFF"/>
<path d="M26.4796 24.9036C29.9523 21.2028 31.4188 15.8769 29.9382 10.7268C27.6669 2.81401 19.2502 -1.71694 11.1386 0.60951C3.02697 2.93831 -1.70345 11.2404 0.570251 19.1555C2.84395 27.0706 11.2606 31.6015 19.3722 29.2727C20.2944 29.0077 21.1954 28.6653 22.0354 28.2596C24.0745 29.1297 27.8546 29.8332 28.1784 29.9482C28.5515 30.0912 29.063 29.9857 28.5843 29.0429C28.1596 28.2901 27.1976 26.238 26.4796 24.9059V24.9036ZM19.9002 23.6724C18.6425 23.6724 17.6241 22.6569 17.6195 21.4022H17.6148V19.465C17.6148 18.2924 16.6645 17.3426 15.4912 17.3426C14.318 17.3426 13.3677 18.2924 13.3677 19.465V21.3412C13.3677 21.3576 13.3701 21.374 13.3701 21.3905C13.3701 22.6498 12.3494 23.6724 11.087 23.6724C9.82459 23.6724 8.81093 22.6569 8.80624 21.4022H8.80155V13.0134C8.80155 9.32668 11.8026 6.32715 15.4912 6.32715C19.1798 6.32715 22.1809 9.32668 22.1809 13.0134V21.3389C22.1809 21.3553 22.1833 21.374 22.1833 21.3905C22.1833 22.6498 21.1626 23.6724 19.9002 23.6724Z" fill="#0A3FFF"/>
</g>
<defs>
<clipPath id="clip0_536_1430">
<rect width="129" height="30" fill="white"/>
</clipPath>
</defs>
</svg>
