<svg width="40" height="40" viewBox="0 0 40 40" fill="none" xmlns="http://www.w3.org/2000/svg">
<rect width="40" height="40" rx="15" fill="#2955F4"/>
<g clip-path="url(#clip0_536_1197)">
<path d="M30.1348 29.639V17.6383C30.1348 12.3233 25.8116 8 20.4988 8C15.1861 8 10.8606 12.3233 10.8606 17.6383V29.7298H10.8674C10.8765 31.5385 12.3448 33 14.1535 33C15.9623 33 17.4419 31.5271 17.4419 29.7116C17.4419 29.6866 17.4397 29.6639 17.4374 29.6412V26.9361C17.4374 25.2476 18.8081 23.8769 20.4966 23.8769C22.185 23.8769 23.5558 25.2476 23.5558 26.9361V29.7298H23.5626C23.5717 31.5385 25.04 33 26.8487 33C28.6574 33 30.1371 31.5271 30.1371 29.7116C30.1371 29.6866 30.1348 29.6617 30.1326 29.6367L30.1348 29.639ZM20.4988 20.972C18.6878 20.972 17.2127 19.4969 17.2127 17.6859C17.2127 15.8749 18.6878 14.3998 20.4988 14.3998C21.3317 14.3998 22.1011 14.7039 22.6798 15.2168C22.5845 15.2009 22.4869 15.185 22.3916 15.185C21.654 15.185 21.0458 15.7932 21.0458 16.5308C21.0458 17.2683 21.6381 17.8765 22.3916 17.8765C23.0179 17.8765 23.5308 17.4431 23.6897 16.8666C23.7532 17.1231 23.785 17.3795 23.785 17.6836C23.785 19.4946 22.3099 20.9698 20.4988 20.9698V20.972Z" fill="white"/>
</g>
<defs>
<clipPath id="clip0_536_1197">
<rect width="19.2788" height="25" fill="white" transform="translate(10.8606 8)"/>
</clipPath>
</defs>
</svg>
